<svg width="14" height="14" viewBox="0 0 14 14" fill="none" xmlns="http://www.w3.org/2000/svg">
<path d="M3.69138 6.94428C3.69401 6.66062 3.8083 6.38942 4.00949 6.18945L6.32253 3.87102C6.42355 3.7706 6.5602 3.71423 6.70264 3.71423C6.84508 3.71423 6.98173 3.7706 7.08275 3.87102C7.13329 3.92114 7.1734 3.98078 7.20077 4.04648C7.22815 4.11218 7.24224 4.18265 7.24224 4.25383C7.24224 4.32501 7.22815 4.39548 7.20077 4.46118C7.1734 4.52688 7.13329 4.58652 7.08275 4.63664L5.30889 6.40511H10.7006C10.8436 6.40511 10.9807 6.46192 11.0818 6.56303C11.1829 6.66414 11.2397 6.80128 11.2397 6.94428C11.2397 7.08728 11.1829 7.22442 11.0818 7.32553C10.9807 7.42664 10.8436 7.48345 10.7006 7.48345H5.30889L7.08275 9.25732C7.18428 9.35813 7.2416 9.49514 7.24211 9.63822C7.24261 9.78129 7.18626 9.91871 7.08545 10.0202C6.98464 10.1218 6.84762 10.1791 6.70455 10.1796C6.56147 10.1801 6.42405 10.1237 6.32253 10.0229L4.00949 7.70451C3.80699 7.50321 3.69259 7.22981 3.69138 6.94428Z" fill="white"/>
</svg>
