<svg width="12" height="12" viewBox="0 0 12 12" fill="none" xmlns="http://www.w3.org/2000/svg">
<path d="M8.84276 5.94414C8.84052 5.70202 8.74297 5.47054 8.57124 5.29985L6.59695 3.32096C6.51072 3.23524 6.39408 3.18713 6.2725 3.18713C6.15092 3.18713 6.03428 3.23524 5.94806 3.32096C5.90492 3.36374 5.87068 3.41464 5.84732 3.47072C5.82396 3.5268 5.81193 3.58695 5.81193 3.64771C5.81193 3.70846 5.82396 3.76861 5.84732 3.82469C5.87068 3.88077 5.90492 3.93167 5.94806 3.97445L7.46214 5.48393H2.86006C2.73801 5.48393 2.62095 5.53242 2.53465 5.61872C2.44834 5.70503 2.39986 5.82209 2.39986 5.94414C2.39986 6.06619 2.44834 6.18325 2.53465 6.26956C2.62095 6.35586 2.73801 6.40435 2.86006 6.40435H7.46214L5.94806 7.91843C5.8614 8.00448 5.81247 8.12143 5.81204 8.24355C5.81161 8.36567 5.85971 8.48296 5.94575 8.56962C6.0318 8.65628 6.14875 8.70521 6.27087 8.70564C6.393 8.70607 6.51029 8.65797 6.59695 8.57192L8.57124 6.59303C8.74408 6.42121 8.84173 6.18786 8.84276 5.94414Z" fill="white"/>
</svg>
