<svg width="24" height="24" viewBox="0 0 24 24" fill="none" xmlns="http://www.w3.org/2000/svg">
<path d="M4.70616 17.9815C4.75817 17.8596 4.83389 17.7493 4.92892 17.6569L17.6568 4.92899C17.7492 4.83397 17.8596 4.75825 17.9814 4.70624C18.1033 4.65423 18.2344 4.62696 18.3669 4.62602C18.4994 4.62509 18.6308 4.6505 18.7534 4.70078C18.876 4.75106 18.9874 4.82521 19.0811 4.91892C19.1748 5.01263 19.249 5.12403 19.2993 5.24665C19.3495 5.36926 19.375 5.50065 19.374 5.63317C19.3731 5.76569 19.3458 5.89671 19.2938 6.0186C19.2418 6.14049 19.1661 6.25083 19.0711 6.34321L6.34313 19.0711C6.25076 19.1662 6.14042 19.2419 6.01853 19.2939C5.89663 19.3459 5.76562 19.3732 5.6331 19.3741C5.50057 19.375 5.36919 19.3496 5.24657 19.2993C5.12396 19.2491 5.01256 19.1749 4.91885 19.0812C4.82514 18.9875 4.75099 18.8761 4.70071 18.7535C4.65042 18.6309 4.62501 18.4995 4.62595 18.367C4.62689 18.2344 4.65415 18.1034 4.70616 17.9815Z" fill="black"/>
<path d="M4.70641 6.01897C4.75842 6.14086 4.83414 6.2512 4.92916 6.34357L17.6571 19.0715C17.7495 19.1665 17.8598 19.2422 17.9817 19.2943C18.1036 19.3463 18.2346 19.3735 18.3671 19.3745C18.4996 19.3754 18.631 19.35 18.7536 19.2997C18.8763 19.2494 18.9877 19.1753 19.0814 19.0816C19.1751 18.9879 19.2492 18.8765 19.2995 18.7538C19.3498 18.6312 19.3752 18.4998 19.3743 18.3673C19.3733 18.2348 19.3461 18.1038 19.2941 17.9819C19.242 17.86 19.1663 17.7497 19.0713 17.6573L6.34338 4.92936C6.251 4.83433 6.14066 4.75862 6.01877 4.7066C5.89688 4.65459 5.76586 4.62733 5.63334 4.62639C5.50082 4.62545 5.36943 4.65086 5.24682 4.70115C5.1242 4.75143 5.0128 4.82558 4.91909 4.91929C4.82538 5.013 4.75123 5.1244 4.70095 5.24701C4.65067 5.36963 4.62526 5.50101 4.62619 5.63354C4.62713 5.76606 4.6544 5.89707 4.70641 6.01897Z" fill="black"/>
</svg>
