<svg width="25" height="24" viewBox="0 0 25 24" fill="none" xmlns="http://www.w3.org/2000/svg">
<g opacity="0.5">
<path fill-rule="evenodd" clip-rule="evenodd" d="M9.64632 4.90441H11.09V6.34814H9.64632V4.90441ZM6.75888 4.90441H8.2026V6.34814H6.75888V4.90441ZM3.87144 4.90441H5.31516V6.34814H3.87144V4.90441ZM21.1961 19.3416H3.87144V7.79186H21.1961V19.3416ZM21.1961 6.34814H12.5338V4.90441H21.1961V6.34814ZM22.6398 4.90441C22.6398 4.11037 21.9901 3.46069 21.1961 3.46069H3.87144C3.07739 3.46069 2.42772 4.11037 2.42772 4.90441V19.3416C2.42772 20.1357 3.07739 20.7853 3.87144 20.7853H21.1961C21.9901 20.7853 22.6398 20.1357 22.6398 19.3416V4.90441Z" fill="white"/>
</g>
</svg>
