<svg width="25" height="24" viewBox="0 0 25 24" fill="none" xmlns="http://www.w3.org/2000/svg">
<g opacity="0.5">
<path fill-rule="evenodd" clip-rule="evenodd" d="M11.09 13.139H8.2026L12.5338 8.80784L16.8649 13.139H13.9775V20.3576H11.09V13.139ZM18.3086 7.36412C18.3086 6.72889 16.9949 3.03296 11.8119 3.03296C8.3181 3.03296 5.31516 5.8049 5.31516 8.80784C2.45659 8.80784 0.983994 11.0023 0.983994 13.139C0.983994 15.3479 2.42771 17.4702 5.31516 17.4702H9.64632V15.5933H5.31516C2.97633 15.5933 2.86083 13.5433 2.86083 13.139C2.86083 12.8936 2.93302 10.6847 5.31516 10.6847H7.192V8.80784C7.192 6.80107 9.4442 4.9098 11.8119 4.9098C15.4934 4.9098 16.3308 7.14756 16.4318 7.50849V9.24096H18.3086C19.4781 9.24096 22.2067 9.55858 22.2067 12.4171C22.2067 15.4345 18.9583 15.5933 18.3086 15.5933H15.4212V17.4702H18.3086C21.3116 17.4702 24.0835 15.7955 24.0835 12.4171C24.0835 8.89447 21.3116 7.36412 18.3086 7.36412Z" fill="white"/>
</g>
</svg>
