<svg width="25" height="24" viewBox="0 0 25 24" fill="none" xmlns="http://www.w3.org/2000/svg">
<path d="M21.1961 3.31616H3.87144C2.80308 3.31616 1.94647 4.17277 1.94647 5.24112V16.7909C1.94647 17.3014 2.14928 17.791 2.51028 18.152C2.87128 18.513 3.3609 18.7159 3.87144 18.7159H8.68384V20.6408H16.3837V18.7159H21.1961C22.2548 18.7159 23.1114 17.8496 23.1114 16.7909L23.1211 5.24112C23.1211 4.73059 22.9182 4.24097 22.5572 3.87997C22.1962 3.51897 21.7066 3.31616 21.1961 3.31616ZM21.1961 16.7909H3.87144V5.24112H21.1961V16.7909ZM16.3837 11.016L9.64632 14.8659V7.16609L16.3837 11.016Z" fill="white"/>
</svg>
